# xmcd CD database file
#
# Track frame offsets:
#	150
#	30225
#	43450
#	60145
#	82442
#	116752
#	136400
#	155467
#	176200
#	193145
#
# Disc length: 2726 seconds
#
# Revision: 2
# Processed by: cddbd v1.5PL3 Copyright (c) Steve Scherf et al.
# Submitted via: CDex 1.51
#
DISCID=8d0aa40a
DTITLE=Okayasu Yoshiaki - Blaze Up
DYEAR=2003
DGENRE=Jazz
TTITLE0=Invitation
TTITLE1=Ghamber Mates
TTITLE2=Blues in the Dark
TTITLE3=Groovin' High
TTITLE4=Listen to the Dawn
TTITLE5=Pent-up House
TTITLE6=The Gommon Ground
TTITLE7=Make it for Buddy
TTITLE8='Round Midnight
TTITLE9=Sincerely Yours
EXTD=YEAR: 2003
EXTT0=
EXTT1=
EXTT2=
EXTT3=
EXTT4=
EXTT5=
EXTT6=
EXTT7=
EXTT8=
EXTT9=
PLAYORDER=
